<?xml version="1.0" encoding="utf-8"?>
<!-- Generator: Adobe Illustrator 26.5.1, SVG Export Plug-In . SVG Version: 6.00 Build 0)  -->
<svg version="1.1" id="Layer_1" xmlns="http://www.w3.org/2000/svg" xmlns:xlink="http://www.w3.org/1999/xlink" x="0px" y="0px"
	 viewBox="0 0 1920 1080" style="enable-background:new 0 0 1920 1080;" xml:space="preserve">
<style type="text/css">
	.st0{fill:#E9FDFF;}
	.st1{fill:#FFFFFF;}
</style>
<g>
	<path class="st0" d="M364.5,786.5C605,697.7,693,601,743.5,536.5c5.18-6.61,6.84-10.23,11-16c64.5-89.5,307.32,124.64,660,214
		c94.96,24.06,174.6,34.2,225,39C1214.5,777.83,789.5,782.17,364.5,786.5z"/>
	<path class="st1" d="M671.84,614.26c0,0-5.84,41.74,49.16-18.26c18.55-20.24,36-19,36-19s34,3,42-18s18.52-19,18.52-19
		S844,570,875,549s52,14,52,14s50.43,31.27,67.72,6.14s-161.44-70.07-161.44-70.07c-2.52-5.99-77.11-25.32-99.28,27.93
		C734,527,704.68,561.52,671.84,614.26z"/>
</g>
</svg>
