<?xml version="1.0" encoding="utf-8"?>
<!-- Generator: Adobe Illustrator 26.5.1, SVG Export Plug-In . SVG Version: 6.00 Build 0)  -->
<svg version="1.1" id="Layer_1" xmlns="http://www.w3.org/2000/svg" xmlns:xlink="http://www.w3.org/1999/xlink" x="0px" y="0px"
	 viewBox="0 0 455.1096 182.4418" style="enable-background:new 0 0 455.1096 182.4418;" xml:space="preserve">
<g>
	<path d="M191.8661,159.8932c-63.3287,0-116.4044-22.2918-123.4729-51.8496c-0.2468-1.0204-0.9299-2.1148-1.5881-3.1763
		c-0.8146-1.3084-1.6622-2.6579-1.6622-3.8099c0-15.4537,13.3224-30.0186,37.5068-41.0205
		c24.0857-10.9525,55.7665-16.9925,89.2164-16.9925c68.5129,0,124.2546,26.2087,124.2546,58.4244
		S260.3789,159.8932,191.8661,159.8932z"/>
	<path d="M191.8661,43.4559c68.2907,0,123.8432,26.0276,123.8432,58.0129s-55.5525,58.0129-123.8432,58.0129
		c-30.7263,0-60.2018-5.3322-83.012-15.0093c-22.4893-9.5454-36.7168-22.5139-40.0659-36.5276
		c-0.2633-1.0862-0.9628-2.2135-1.6375-3.2997c-0.7817-1.259-1.5964-2.5591-1.5964-3.596c0-15.2809,13.2319-29.7141,37.2681-40.6502
		C126.8505,49.4794,158.4737,43.4559,191.8661,43.4559 M191.8661,42.6331c-68.8502,0-127.1347,25.9289-127.1347,58.4244
		c0,2.2547,2.7402,4.8961,3.2586,7.085c7.0191,29.3521,59.8068,52.1623,123.8761,52.1623
		c68.8503,0,124.6661-26.3403,124.6661-58.8358S260.7163,42.6331,191.8661,42.6331L191.8661,42.6331z"/>
</g>
<path style="stroke:#000000;stroke-miterlimit:10;" d="M287.3199,72.6681c0,0,27.4924-10.2695,32.0923-23.0406
	c7.4059-20.572,18.1033-20.572,18.1033-20.572s5.3487-5.3487,30.4465,4.9373c23.5178,9.6359,21.3948,18.9262,21.3948,18.9262
	s48.5498,0,39.4981,13.1661c0,0-0.9298-13.1332-37.8524-0.8229c-19.7491,6.583-34.5609,17.2804-34.5609,17.2804
	s-20.753,33.2772-69.9447,55.1328C252.1337,152.9399,287.3199,72.6681,287.3199,72.6681z"/>
<path style="fill:#DBDADA;stroke:#CCCCCC;stroke-miterlimit:10;" d="M133.4417,109.6976c0,0,111.0886,7.4059,177.7417-4.1144
	c0,0,25.5092-7.4059,16.4576-22.2177s-18.9262-11.5203-18.9262-11.5203s22.2177-12.3432,29.6236-9.0517
	c7.4059,3.2915,4.1144,16.4576,4.1144,16.4576s-2.4686,15.6347,13.1661,4.9373c0,0-48.1219,76.503-157.3672,76.9309
	C89.0064,161.5472,68.813,118.0169,67.6115,108.0519C66.41,98.0868,80.7775,85.8342,133.4417,109.6976z"/>
<path style="fill:#FE9F6D;" d="M424.0165,61.3206c0,0-13.7009-9.4878-36.2478,0.0082
	C387.8181,62.0694,411.4018,56.3093,424.0165,61.3206z"/>
<path style="stroke:#000000;stroke-width:1.1699;stroke-miterlimit:10;" d="M80.5513,85.6784c0,0-1.6653-5.5702-17.4208-29.6233
	l3.5438,13.3219l-5.5421-12.01l0.7775,13.5431l-0.9842-1.1661l-2.4901-7.5561L57.112,73.4964l-2.5845-7.0417
	c0,0,0.833,26.0766,13.801,26.8495C81.2858,94.0802,80.5513,85.6784,80.5513,85.6784z"/>
<path style="stroke:#000000;stroke-width:1.9715;stroke-miterlimit:10;" d="M90.1431,128.0587c0,0-19.7244,12.3082-38.5675,14.2416
	c0,0,14.3633,7.4354,29.3561,0.1767c0,0-14.5874,6.0388-22.114,7.6257c5.1016,1.6267,32.8049-2.5284,41.2921-4.5834
	C117.8967,141.2038,90.1431,128.0587,90.1431,128.0587z"/>
<g>
	<path style="fill:#DBDADA;" d="M229.0493,119.3835c0,0,8.1806,25.6128-6.8208,48.9709
		C222.2276,168.3462,240.727,142.5564,229.0493,119.3835z"/>
	<path style="stroke:#000000;stroke-width:1.7842;stroke-miterlimit:10;" d="M251.366,99.4781c0,0,20.2208,51.3492-30.4776,69.8522
		c0,0,18.4522-34.731,4.6474-63.0212L251.366,99.4781z"/>
</g>
<circle style="fill:#FFFFFF;stroke:#000000;stroke-miterlimit:10;" cx="361.0244" cy="47.6156" r="8.4395"/>
<ellipse style="stroke:#000000;stroke-miterlimit:10;" cx="361.6215" cy="47.6336" rx="2.7851" ry="1.3926"/>
</svg>
