<?xml version="1.0" encoding="utf-8"?>
<!-- Generator: Adobe Illustrator 27.0.0, SVG Export Plug-In . SVG Version: 6.00 Build 0)  -->
<svg version="1.1" id="Layer_1" xmlns="http://www.w3.org/2000/svg" xmlns:xlink="http://www.w3.org/1999/xlink" x="0px" y="0px"
	 viewBox="0 0 1920 1080" style="enable-background:new 0 0 1920 1080;" xml:space="preserve">
<style type="text/css">
	.st0{fill:#D4EEF9;stroke:#A9DDF3;stroke-width:0.8442;stroke-miterlimit:10;}
	.st1{fill:#A9DDF3;}
	.st2{fill:#6DA7C0;stroke:#A9DDF3;stroke-width:1.0532;stroke-miterlimit:10;}
	.st3{opacity:0.64;}
	.st4{fill:#FFFFFF;}
</style>
<rect x="-151.5" y="-39.5" class="st0" width="2169" height="855"/>
<g>
	<rect x="-204.47" y="728.53" class="st1" width="2314.95" height="411.95"/>
	<path class="st1" d="M2109.95,729.05v410.89H-203.95V729.05H2109.95 M2111,728H-205v413h2316V728L2111,728z"/>
</g>
<polygon class="st2" points="55.78,747.5 64.78,694.5 76.78,718.5 86.78,660.5 93.78,703.5 102.78,680.5 112.78,747.5 "/>
<polygon class="st2" points="446.78,727.5 455.78,674.5 467.78,698.5 477.78,640.5 484.78,683.5 493.78,660.5 503.78,727.5 "/>
<g class="st3">
	<ellipse class="st4" cx="556.5" cy="127.5" rx="67.5" ry="62.5"/>
	<ellipse class="st4" cx="635" cy="103" rx="65" ry="66"/>
	<ellipse class="st4" cx="740.5" cy="148.5" rx="81.5" ry="79.5"/>
	<path class="st4" d="M560,177c0,20.3-12.72,37.71-30.84,45.15c-6.04,2.48-12.68,3.85-19.66,3.85c-27.89,0-50.5-21.94-50.5-49
		s22.61-49,50.5-49S560,149.94,560,177z"/>
	<polygon class="st4" points="743,228 519.16,226.83 525.32,143 739.31,147.11 	"/>
</g>
<g class="st3">
	<ellipse class="st4" cx="-154.12" cy="342.8" rx="67.5" ry="62.5"/>
	<ellipse class="st4" cx="-75.62" cy="318.3" rx="65" ry="66"/>
	<ellipse class="st4" cx="29.88" cy="363.8" rx="81.5" ry="79.5"/>
	<path class="st4" d="M-150.62,392.3c0,20.3-12.72,37.71-30.84,45.15c-6.04,2.48-12.68,3.85-19.66,3.85c-27.89,0-50.5-21.94-50.5-49
		c0-27.06,22.61-49,50.5-49S-150.62,365.24-150.62,392.3z"/>
	<polygon class="st4" points="32.38,443.3 -191.46,442.14 -185.3,358.3 28.69,362.42 	"/>
</g>
<g class="st3">
	<ellipse class="st4" cx="1420.88" cy="313.8" rx="67.5" ry="62.5"/>
	<ellipse class="st4" cx="1499.38" cy="289.3" rx="65" ry="66"/>
	<ellipse class="st4" cx="1604.88" cy="334.8" rx="81.5" ry="79.5"/>
	<path class="st4" d="M1424.38,363.3c0,20.3-12.72,37.71-30.84,45.15c-6.04,2.48-12.68,3.85-19.66,3.85c-27.89,0-50.5-21.94-50.5-49
		c0-27.06,22.61-49,50.5-49S1424.38,336.24,1424.38,363.3z"/>
	<polygon class="st4" points="1607.38,414.3 1383.54,413.14 1389.7,329.3 1603.69,333.42 	"/>
</g>
<polygon class="st2" points="909.12,754.5 918.12,701.5 930.12,725.5 940.12,667.5 947.12,710.5 956.12,687.5 966.12,754.5 "/>
<polygon class="st2" points="1768.12,736.5 1777.12,683.5 1789.12,707.5 1799.12,649.5 1806.12,692.5 1815.12,669.5 1825.12,736.5 
	"/>
</svg>
