<?xml version="1.0" encoding="utf-8"?>
<!-- Generator: Adobe Illustrator 26.5.1, SVG Export Plug-In . SVG Version: 6.00 Build 0)  -->
<svg version="1.1" id="Layer_1" xmlns="http://www.w3.org/2000/svg" xmlns:xlink="http://www.w3.org/1999/xlink" x="0px" y="0px"
	 viewBox="0 0 1920 1080" style="enable-background:new 0 0 1920 1080;" xml:space="preserve">
<rect x="-151.5" y="-39.5" style="fill:#D4EEF9;" width="2169" height="855"/>
<g>
	<rect x="-204.47" y="781.53" style="fill:#A9DDF3;" width="2314.95" height="411.95"/>
	<path style="fill:#A9DDF3;" d="M2109.95,782.05v410.89H-203.95V782.05H2109.95 M2111,781H-205v413h2316V781L2111,781z"/>
</g>
<polygon style="fill:#6DA7C0;stroke:#A9DDF3;stroke-width:1.0532;stroke-miterlimit:10;" points="254.46,824.5 263.46,771.5 
	275.46,795.5 285.46,737.5 292.46,780.5 301.46,757.5 311.46,824.5 "/>
<polygon style="fill:#6DA7C0;stroke:#A9DDF3;stroke-width:1.3847;stroke-miterlimit:10;" points="331.1391,799.5 342.8591,729.14 
	358.4891,761 371.5091,684 380.6191,741.09 392.3391,710.55 405.3591,799.5 "/>
<polygon style="fill:#6DA7C0;stroke:#A9DDF3;stroke-width:1.0532;stroke-miterlimit:10;" points="1619.0624,806.05 
	1628.0624,753.05 1640.0624,777.05 1650.0624,719.05 1657.0624,762.05 1666.0624,739.05 1676.0624,806.05 "/>
<circle style="fill:#CCFFFF;" cx="1016.005" cy="781" r="63"/>
<g>
	<ellipse style="fill:#FFFFFF;" cx="1382.0624" cy="120.5" rx="67.5" ry="62.5"/>
	<ellipse style="fill:#FFFFFF;" cx="1460.5624" cy="96" rx="65" ry="66"/>
	<ellipse style="fill:#FFFFFF;" cx="1566.0624" cy="141.5" rx="81.5" ry="79.5"/>
	<path style="fill:#FFFFFF;" d="M1385.5624,170c0,20.3-12.72,37.71-30.84,45.15c-6.04,2.48-12.6801,3.85-19.66,3.85
		c-27.89,0-50.5-21.94-50.5-49s22.61-49,50.5-49S1385.5624,142.94,1385.5624,170z"/>
	<polygon style="fill:#FFFFFF;" points="1568.5624,221 1344.7224,219.83 1350.8824,136 1564.8724,140.11 	"/>
</g>
<g>
	<ellipse style="fill:#FFFFFF;" cx="279.46" cy="216" rx="67.5" ry="62.5"/>
	<ellipse style="fill:#FFFFFF;" cx="357.96" cy="191.5" rx="65" ry="66"/>
	<ellipse style="fill:#FFFFFF;" cx="463.46" cy="237" rx="81.5" ry="79.5"/>
	<path style="fill:#FFFFFF;" d="M282.96,265.5c0,20.3-12.72,37.71-30.84,45.15c-6.04,2.48-12.68,3.85-19.66,3.85
		c-27.89,0-50.5-21.94-50.5-49s22.61-49,50.5-49C260.35,216.5,282.96,238.44,282.96,265.5z"/>
	<polygon style="fill:#FFFFFF;" points="465.96,316.5 242.12,315.34 248.28,231.5 462.27,235.62 	"/>
</g>
</svg>
