<?xml version="1.0" encoding="utf-8"?>
<!-- Generator: Adobe Illustrator 26.5.1, SVG Export Plug-In . SVG Version: 6.00 Build 0)  -->
<svg version="1.1" id="Layer_1" xmlns="http://www.w3.org/2000/svg" xmlns:xlink="http://www.w3.org/1999/xlink" x="0px" y="0px"
	 viewBox="0 0 455.1096 182.4418" style="enable-background:new 0 0 455.1096 182.4418;" xml:space="preserve">
<g>
	<path d="M191.8661,159.8932c-63.3287,0-116.4044-22.2918-123.4729-51.8496c-0.2468-1.0204-0.9299-2.1148-1.5881-3.1763
		c-0.8146-1.3084-1.6622-2.6579-1.6622-3.8099c0-15.4537,13.3224-30.0186,37.5068-41.0205
		c24.0857-10.9525,55.7665-16.9925,89.2164-16.9925c68.5129,0,124.2546,26.2087,124.2546,58.4244
		S260.3789,159.8932,191.8661,159.8932z"/>
	<path d="M191.8661,43.4559c68.2907,0,123.8432,26.0276,123.8432,58.0129s-55.5525,58.0129-123.8432,58.0129
		c-30.7263,0-60.2018-5.3322-83.012-15.0093c-22.4893-9.5454-36.7168-22.5139-40.0659-36.5276
		c-0.2633-1.0862-0.9628-2.2135-1.6375-3.2997c-0.7817-1.259-1.5964-2.5591-1.5964-3.596c0-15.2809,13.2319-29.7141,37.2681-40.6502
		C126.8505,49.4794,158.4737,43.4559,191.8661,43.4559 M191.8661,42.6331c-68.8502,0-127.1347,25.9289-127.1347,58.4244
		c0,2.2547,2.7402,4.8961,3.2586,7.085c7.0191,29.3521,59.8068,52.1623,123.8761,52.1623
		c68.8503,0,124.6661-26.3403,124.6661-58.8358S260.7163,42.6331,191.8661,42.6331L191.8661,42.6331z"/>
</g>
<path style="stroke:#000000;stroke-miterlimit:10;" d="M287.3199,72.6681c0,0,27.4924-10.2695,32.0923-23.0406
	c7.4059-20.572,18.1033-20.572,18.1033-20.572s5.3487-5.3487,30.4465,4.9373c23.5178,9.6359,21.3948,18.9262,21.3948,18.9262
	s48.5498,0,39.4981,13.1661c0,0-0.9298-13.1332-37.8524-0.8229c-19.7491,6.583-34.5609,17.2804-34.5609,17.2804
	s-20.753,33.2772-69.9447,55.1328C252.1337,152.9399,287.3199,72.6681,287.3199,72.6681z"/>
<path style="fill:#DBDADA;stroke:#CCCCCC;stroke-miterlimit:10;" d="M133.4417,109.6976c0,0,111.0886,7.4059,177.7417-4.1144
	c0,0,25.5092-7.4059,16.4576-22.2177s-18.9262-11.5203-18.9262-11.5203s22.2177-12.3432,29.6236-9.0517
	c7.4059,3.2915,4.1144,16.4576,4.1144,16.4576s-2.4686,15.6347,13.1661,4.9373c0,0-48.1219,76.503-157.3672,76.9309
	c-109.2453,0.4279-129.4387-43.1024-130.6402-53.0674C66.41,98.0868,80.7775,85.8342,133.4417,109.6976z"/>
<path style="fill:#FE9F6D;" d="M424.0165,61.3206c0,0-13.7009-9.4878-36.2478,0.0082
	C387.8181,62.0694,411.4018,56.3093,424.0165,61.3206z"/>
<path style="stroke:#000000;stroke-width:1.1699;stroke-miterlimit:10;" d="M78.3089,75.9596c0,0-19.4775,13.3389-46.9205,19.7491
	l13.7832,0.1728l-13.0673,1.5305l13.2401,2.2053l-1.3907,0.469l-7.949,0.2469l10.5164,3.2586l-7.48,0.4197
	c0,0,25.3117,4.7233,29.5989-4.4353C72.9273,90.4258,78.3089,75.9596,78.3089,75.9596z"/>
<path style="stroke:#000000;stroke-width:1.9715;stroke-miterlimit:10;" d="M89.4177,127.3895c0,0-18.9262,13.5034-37.6138,16.5974
	c0,0,14.7953,6.5337,29.3109-1.6375c0,0-14.1864,6.9286-21.6006,8.9776c5.1924,1.3084,32.586-4.5505,40.93-7.1261
	C117.9305,138.7946,89.4177,127.3895,89.4177,127.3895z"/>
<g>
	<path style="fill:#DBDADA;" d="M215.1095,120.5626c0,0,3.197,26.6967-15.9451,46.8019
		C199.165,167.3563,222.2015,145.5237,215.1095,120.5626z"/>
	<path style="stroke:#000000;stroke-width:1.7842;stroke-miterlimit:10;" d="M240.7834,105.2292
		c0,0,10.1609,54.2436-43.1194,62.8406c0,0,24.6784-30.6219,16.4639-61.0099L240.7834,105.2292z"/>
</g>
</svg>
