<?xml version="1.0" encoding="utf-8"?>
<!-- Generator: Adobe Illustrator 26.5.1, SVG Export Plug-In . SVG Version: 6.00 Build 0)  -->
<svg version="1.1" id="Layer_1" xmlns="http://www.w3.org/2000/svg" xmlns:xlink="http://www.w3.org/1999/xlink" x="0px" y="0px"
	 viewBox="0 0 1920 1080" style="enable-background:new 0 0 1920 1080;" xml:space="preserve">
<rect style="fill:#DFF1FF;" width="1920" height="1080"/>
<g>
	<path style="fill:#E9FDFF;" d="M441.5,835.5c240.5016-88.8041,328.5-185.5,379-250c5.1772-6.6124,6.8444-10.2336,11-16
		c64.5-89.5,307.3188,124.6386,660,214c94.9612,24.061,174.6021,34.2028,225,39C1291.5,826.8333,866.5,831.1667,441.5,835.5z"/>
	<path style="fill:#FFFFFF;" d="M748.8406,663.2596C748.8406,663.2596,743,705,798,645c18.5547-20.2416,36-19,36-19s34,3,42-18
		s18.5181-19,18.5181-19S921,619,952,598s52,14,52,14s50.4318,31.2705,67.7158,6.1353C1089,593,910.2782,548.0697,910.2782,548.0697
		C907.7614,542.0784,833.1726,522.7472,811,576C811,576,781.6811,610.5192,748.8406,663.2596z"/>
</g>
<rect x="-53" y="823" style="fill:#BFCDFF;" width="2028" height="270"/>
</svg>
